<?xml version="1.0" encoding="UTF-8" standalone="no"?>
<svg xmlns="http://www.w3.org/2000/svg" xmlns:xlink="http://www.w3.org/1999/xlink" contentStyleType="text/css" height="622px" preserveAspectRatio="none" style="width:282px;height:622px;background:#FFFFFF;" version="1.1" viewBox="0 0 282 622" width="282px" zoomAndPan="magnify"><defs/><g><!--cluster Host--><g id="cluster_Host"><rect fill="none" height="480" rx="2.5" ry="2.5" style="stroke:#181818;stroke-width:1.0;" width="256" x="7" y="136"/><rect fill="none" height="10" style="stroke:#181818;stroke-width:1.0;" width="15" x="243" y="141"/><rect fill="none" height="2" style="stroke:#181818;stroke-width:1.0;" width="4" x="241" y="143"/><rect fill="none" height="2" style="stroke:#181818;stroke-width:1.0;" width="4" x="241" y="147"/><text fill="#000000" font-family="sans-serif" font-size="14" font-weight="bold" lengthAdjust="spacing" textLength="38" x="116" y="161.9951">Host</text></g><!--cluster Docker--><g id="cluster_Docker"><rect fill="none" height="268" rx="2.5" ry="2.5" style="stroke:#181818;stroke-width:1.0;" width="224" x="23" y="332"/><rect fill="none" height="10" style="stroke:#181818;stroke-width:1.0;" width="15" x="227" y="337"/><rect fill="none" height="2" style="stroke:#181818;stroke-width:1.0;" width="4" x="225" y="339"/><rect fill="none" height="2" style="stroke:#181818;stroke-width:1.0;" width="4" x="225" y="343"/><text fill="#000000" font-family="sans-serif" font-size="14" font-weight="bold" lengthAdjust="spacing" textLength="55" x="107.5" y="357.9951">Docker</text></g><text fill="#000000" font-family="sans-serif" font-size="14" lengthAdjust="spacing" textLength="18" x="212" y="114.6982">h1</text><rect fill="#F1F1F1" height="12" style="stroke:#181818;stroke-width:1.5;" width="12" x="215" y="130"/><!--entity Anki--><g id="elem_Anki"><rect fill="#F1F1F1" height="46.2969" rx="2.5" ry="2.5" style="stroke:#181818;stroke-width:0.5;" width="72" x="40" y="203"/><rect fill="#F1F1F1" height="10" style="stroke:#181818;stroke-width:0.5;" width="15" x="92" y="208"/><rect fill="#F1F1F1" height="2" style="stroke:#181818;stroke-width:0.5;" width="4" x="90" y="210"/><rect fill="#F1F1F1" height="2" style="stroke:#181818;stroke-width:0.5;" width="4" x="90" y="214"/><text fill="#000000" font-family="sans-serif" font-size="14" lengthAdjust="spacing" textLength="32" x="55" y="235.9951">Anki</text></g><text fill="#000000" font-family="sans-serif" font-size="14" lengthAdjust="spacing" textLength="18" x="104" y="310.6982">d1</text><rect fill="#F1F1F1" height="12" style="stroke:#181818;stroke-width:1.5;" width="12" x="107" y="326"/><!--entity NGINX--><g id="elem_NGINX"><rect fill="#F1F1F1" height="46.2969" rx="2.5" ry="2.5" style="stroke:#181818;stroke-width:0.5;" width="85" x="145.5" y="415"/><rect fill="#F1F1F1" height="10" style="stroke:#181818;stroke-width:0.5;" width="15" x="210.5" y="420"/><rect fill="#F1F1F1" height="2" style="stroke:#181818;stroke-width:0.5;" width="4" x="208.5" y="422"/><rect fill="#F1F1F1" height="2" style="stroke:#181818;stroke-width:0.5;" width="4" x="208.5" y="426"/><text fill="#000000" font-family="sans-serif" font-size="14" lengthAdjust="spacing" textLength="45" x="160.5" y="447.9951">NGINX</text></g><!--entity Anki Sync Server--><g id="elem_Anki Sync Server"><rect fill="#F1F1F1" height="46.2969" rx="2.5" ry="2.5" style="stroke:#181818;stroke-width:0.5;" width="161" x="69.5" y="538"/><rect fill="#F1F1F1" height="10" style="stroke:#181818;stroke-width:0.5;" width="15" x="210.5" y="543"/><rect fill="#F1F1F1" height="2" style="stroke:#181818;stroke-width:0.5;" width="4" x="208.5" y="545"/><rect fill="#F1F1F1" height="2" style="stroke:#181818;stroke-width:0.5;" width="4" x="208.5" y="549"/><text fill="#000000" font-family="sans-serif" font-size="14" lengthAdjust="spacing" textLength="121" x="84.5" y="570.9951">Anki Sync Server</text></g><!--entity AnkiDroid--><g id="elem_AnkiDroid"><rect fill="#F1F1F1" height="46.2969" rx="2.5" ry="2.5" style="stroke:#181818;stroke-width:0.5;" width="111" x="165.5" y="7"/><rect fill="#F1F1F1" height="10" style="stroke:#181818;stroke-width:0.5;" width="15" x="256.5" y="12"/><rect fill="#F1F1F1" height="2" style="stroke:#181818;stroke-width:0.5;" width="4" x="254.5" y="14"/><rect fill="#F1F1F1" height="2" style="stroke:#181818;stroke-width:0.5;" width="4" x="254.5" y="18"/><text fill="#000000" font-family="sans-serif" font-size="14" lengthAdjust="spacing" textLength="71" x="180.5" y="39.9951">AnkiDroid</text></g><!--link d1 to NGINX--><g id="link_d1_NGINX"><path d="M116.617,338.016 C126.449,351.649 154.119,390.018 171.98,414.785 " fill="none" id="d1-NGINX" style="stroke:#181818;stroke-width:1.0;"/><text fill="#000000" font-family="sans-serif" font-size="13" lengthAdjust="spacing" textLength="24" x="151" y="381.0669">443</text></g><!--link NGINX to Anki Sync Server--><g id="link_NGINX_Anki Sync Server"><path d="M181.03,461.193 C174.174,483.026 163.767,516.164 156.926,537.9474 " fill="none" id="NGINX-Anki Sync Server" style="stroke:#181818;stroke-width:1.0;"/><text fill="#000000" font-family="sans-serif" font-size="13" lengthAdjust="spacing" textLength="40" x="172" y="504.0669">27701</text></g><!--link Anki to d1--><g id="link_Anki_d1"><path d="M64.2923,249.202 C58.5622,263.282 54.3687,281.507 62,296 C71.6064,314.244 95.4907,324.809 106.832,328.952 " fill="none" id="Anki-d1" style="stroke:#181818;stroke-width:1.0;"/><text fill="#000000" font-family="sans-serif" font-size="13" lengthAdjust="spacing" textLength="40" x="63" y="292.0669">27701</text></g><!--link h1 to d1--><g id="link_h1_d1"><path d="M223.478,142.066 C233.503,163.365 268.801,246.816 232,296 C204.262,333.071 139.18,332.561 119.045,331.447 " fill="none" id="h1-d1" style="stroke:#181818;stroke-width:1.0;"/></g><!--link AnkiDroid to h1--><g id="link_AnkiDroid_h1"><path d="M221,53.056 C221,77.621 221,115.712 221,129.655 " fill="none" id="AnkiDroid-h1" style="stroke:#181818;stroke-width:1.0;"/><text fill="#000000" font-family="sans-serif" font-size="13" lengthAdjust="spacing" textLength="40" x="222" y="96.0669">27701</text></g><!--SRC=[IyxFBSZFIyqhKV38BovHgEOgo2ygKSWmv8fspClEZELAXikxv2TdfnR1LAG0LVYvU_f5n49KAWHNvYKh1ASMbQKMnNAb62hewYf05IXOAPYO6CEKWoKmT03L69cR6nXorG8Xr6wGIg11C9aCGuW0LDgbA3yp1Qmc0wu60000]--></g></svg>