<?xml version="1.0" encoding="UTF-8" standalone="no"?>
<!-- Created with Inkscape (http://www.inkscape.org/) -->

<svg
   width="18.063288mm"
   height="18.063288mm"
   viewBox="0 0 18.063288 18.063288"
   version="1.1"
   id="svg1"
   inkscape:version="1.3.2 (091e20ef0f, 2023-11-25, custom)"
   sodipodi:docname="favicon.svg"
   xmlns:inkscape="http://www.inkscape.org/namespaces/inkscape"
   xmlns:sodipodi="http://sodipodi.sourceforge.net/DTD/sodipodi-0.dtd"
   xmlns="http://www.w3.org/2000/svg"
   xmlns:svg="http://www.w3.org/2000/svg">
  <sodipodi:namedview
     id="namedview1"
     pagecolor="#ffffff"
     bordercolor="#666666"
     borderopacity="1.0"
     inkscape:showpageshadow="2"
     inkscape:pageopacity="0.0"
     inkscape:pagecheckerboard="0"
     inkscape:deskcolor="#d1d1d1"
     inkscape:document-units="mm"
     inkscape:zoom="9.4237255"
     inkscape:cx="34.222134"
     inkscape:cy="33.850731"
     inkscape:window-width="3840"
     inkscape:window-height="2095"
     inkscape:window-x="0"
     inkscape:window-y="37"
     inkscape:window-maximized="1"
     inkscape:current-layer="layer1" />
  <defs
     id="defs1" />
  <g
     inkscape:label="Layer 1"
     inkscape:groupmode="layer"
     id="layer1"
     transform="translate(-69.969032,-96.045822)">
    <rect
       style="opacity:0.99;fill:none;fill-opacity:1;stroke:#000000;stroke-width:0.0000000163872"
       id="rect3"
       width="18.063288"
       height="18.063288"
       x="69.969032"
       y="96.045822"
       ry="0"
       inkscape:export-filename="bla.png"
       inkscape:export-xdpi="67.732956"
       inkscape:export-ydpi="67.732956" />
    <rect
       style="opacity:0.99;fill:#339260;fill-opacity:0;stroke:#000000;stroke-width:3.175e-08"
       id="rect1"
       width="18"
       height="18"
       x="59.566303"
       y="100.81281"
       ry="0.46999353" />
    <g
       id="g4"
       transform="translate(-0.11395716,0.25448251)">
      <path
         id="path9"
         d="M 70.721261,112.76298 V 97.262898 h 17.00035 v 15.500082 z"
         style="fill:#9cffd5;fill-opacity:1;fill-rule:nonzero;stroke:#000000;stroke-width:0.140582;stroke-linecap:butt;stroke-linejoin:miter;stroke-miterlimit:10;stroke-dasharray:none;stroke-opacity:1" />
      <path
         id="path11"
         d="m 70.114584,113.07305 v -1.99999 h 1.00007 v 1.99999 z"
         style="fill:#000000;fill-opacity:1;fill-rule:nonzero;stroke:none;stroke-width:0.352778" />
      <path
         id="path12"
         d="m 70.114584,113.07305 v -1.00006 h 1.99999 v 1.00006 z"
         style="fill:#000000;fill-opacity:1;fill-rule:nonzero;stroke:none;stroke-width:0.352778" />
      <path
         id="path13"
         d="m 70.114584,96.572917 h 1.99999 v 1.00006 h -1.99999 z"
         style="fill:#000000;fill-opacity:1;fill-rule:nonzero;stroke:none;stroke-width:0.352778" />
      <path
         id="path14"
         d="m 70.114584,96.572917 h 1.00007 v 1.99999 h -1.00007 z"
         style="fill:#000000;fill-opacity:1;fill-rule:nonzero;stroke:none;stroke-width:0.352778" />
      <path
         id="path15"
         d="m 88.114684,96.572917 v 1.99999 h -1.00008 v -1.99999 z"
         style="fill:#000000;fill-opacity:1;fill-rule:nonzero;stroke:none;stroke-width:0.352778" />
      <path
         id="path16"
         d="m 88.114684,96.572917 v 1.00006 h -1.99999 v -1.00006 z"
         style="fill:#000000;fill-opacity:1;fill-rule:nonzero;stroke:none;stroke-width:0.352778" />
      <path
         id="path17"
         d="m 88.114684,113.07305 h -1.99999 v -1.00006 h 1.99999 z"
         style="fill:#000000;fill-opacity:1;fill-rule:nonzero;stroke:none;stroke-width:0.352778" />
      <path
         id="path18"
         d="m 88.114684,113.07305 h -1.00008 v -1.99999 h 1.00008 z"
         style="fill:#000000;fill-opacity:1;fill-rule:nonzero;stroke:none;stroke-width:0.352778" />
      <path
         style="font-size:6.70277px;line-height:1.25;font-family:'DejaVu Sans';-inkscape-font-specification:'DejaVu Sans';letter-spacing:0px;word-spacing:0px;stroke-width:0.264583"
         d="m 78.122964,104.84263 q 0,-0.66439 -0.27492,-1.04076 -0.27164,-0.37965 -0.74948,-0.37965 -0.47783,0 -0.75275,0.37965 -0.27164,0.37637 -0.27164,1.04076 0,0.66439 0.27164,1.04404 0.27492,0.37637 0.75275,0.37637 0.47784,0 0.74948,-0.37637 0.27492,-0.37965 0.27492,-1.04404 z m -2.04879,-1.27968 q 0.18982,-0.32728 0.47783,-0.48438 0.29128,-0.16037 0.69384,-0.16037 0.66766,0 1.08331,0.5302 0.41892,0.5302 0.41892,1.39423 0,0.86403 -0.41892,1.39423 -0.41565,0.5302 -1.08331,0.5302 -0.40256,0 -0.69384,-0.1571 -0.28801,-0.16037 -0.47783,-0.48765 v 0.54984 h -0.60548 v -5.09254 h 0.60548 z m 6.0842,1.23386 q 0,-0.65457 -0.27165,-1.01458 -0.26837,-0.36001 -0.75602,-0.36001 -0.48438,0 -0.75603,0.36001 -0.26837,0.36001 -0.26837,1.01458 0,0.65129 0.26837,1.01131 0.27165,0.36001 0.75603,0.36001 0.48765,0 0.75602,-0.36001 0.27165,-0.36002 0.27165,-1.01131 z m 0.6022,1.42041 q 0,0.93603 -0.41565,1.39096 -0.41565,0.45819 -1.27313,0.45819 -0.31747,0 -0.59893,-0.0491 -0.28147,-0.0458 -0.54656,-0.144 v -0.58584 q 0.26509,0.144 0.52365,0.21273 0.25855,0.0687 0.52693,0.0687 0.59238,0 0.88693,-0.31092 0.29456,-0.30764 0.29456,-0.93275 v -0.29783 q -0.18655,0.32401 -0.47783,0.48438 -0.29129,0.16037 -0.69712,0.16037 -0.6742,0 -1.08658,-0.51384 -0.41238,-0.51383 -0.41238,-1.3615 0,-0.85094 0.41238,-1.36477 0.41238,-0.51384 1.08658,-0.51384 0.40583,0 0.69712,0.16037 0.29128,0.16037 0.47783,0.48438 v -0.55638 h 0.6022 z"
         id="text1"
         aria-label="bg" />
    </g>
    <rect
       style="opacity:0.99;fill:#339260;fill-opacity:0;stroke:#000000;stroke-width:3.175e-08"
       id="rect2"
       width="13.077362"
       height="13.467033"
       x="53.040714"
       y="99.628525"
       ry="0.46999353" />
  </g>
</svg>
