<?xml version="1.0" encoding="UTF-8" standalone="no"?>
<!-- Created with Inkscape (http://www.inkscape.org/) -->

<svg
   width="30.140951mm"
   height="26.00037mm"
   viewBox="0 0 30.140951 26.00037"
   version="1.1"
   id="svg1"
   sodipodi:docname="logo3.svg"
   inkscape:version="1.3.2 (091e20ef0f, 2023-11-25, custom)"
   xmlns:inkscape="http://www.inkscape.org/namespaces/inkscape"
   xmlns:sodipodi="http://sodipodi.sourceforge.net/DTD/sodipodi-0.dtd"
   xmlns="http://www.w3.org/2000/svg"
   xmlns:svg="http://www.w3.org/2000/svg">
  <sodipodi:namedview
     id="namedview1"
     pagecolor="#ffffff"
     bordercolor="#666666"
     borderopacity="1.0"
     inkscape:showpageshadow="2"
     inkscape:pageopacity="0.0"
     inkscape:pagecheckerboard="0"
     inkscape:deskcolor="#d1d1d1"
     inkscape:document-units="mm"
     inkscape:zoom="9.4237255"
     inkscape:cx="55.126818"
     inkscape:cy="63.881317"
     inkscape:window-width="3840"
     inkscape:window-height="2095"
     inkscape:window-x="0"
     inkscape:window-y="37"
     inkscape:window-maximized="1"
     inkscape:current-layer="layer1" />
  <defs
     id="defs1" />
  <g
     inkscape:label="Layer 1"
     inkscape:groupmode="layer"
     id="layer1"
     transform="translate(-53.974998,-103.71667)">
    <path
       id="path2"
       d="m 54.03425,126.22864 v -5.00006 h 30.000369 v 5.00006 z"
       style="fill:none;stroke:#000000;stroke-width:0.140582;stroke-linecap:butt;stroke-linejoin:miter;stroke-miterlimit:10;stroke-dasharray:none;stroke-opacity:1" />
    <path
       id="path3"
       d="m 62.534419,126.22864 c 0,-1.93308 -1.567028,-3.50011 -3.500105,-3.50011 -1.933074,0 -3.500103,1.56703 -3.500103,3.50011 0,1.93307 1.567029,3.5001 3.500103,3.5001 1.933077,0 3.500105,-1.56703 3.500105,-3.5001 z"
       style="fill:#ffffff;fill-opacity:1;fill-rule:nonzero;stroke:none;stroke-width:0.352778" />
    <path
       id="path4"
       d="m 61.53434,126.22864 c 0,-1.38074 -1.119286,-2.50003 -2.500026,-2.50003 -1.380741,0 -2.500023,1.11929 -2.500023,2.50003 0,1.38074 1.119282,2.50002 2.500023,2.50002 1.38074,0 2.500026,-1.11928 2.500026,-2.50002 z"
       style="fill:none;stroke:#000000;stroke-width:0.140582;stroke-linecap:butt;stroke-linejoin:miter;stroke-miterlimit:10;stroke-dasharray:none;stroke-opacity:1" />
    <path
       id="path5"
       d="m 82.534669,126.22864 c 0,-1.93308 -1.56704,-3.50011 -3.50011,-3.50011 -1.93307,0 -3.5001,1.56703 -3.5001,3.50011 0,1.93307 1.56703,3.5001 3.5001,3.5001 1.93307,0 3.50011,-1.56703 3.50011,-3.5001 z"
       style="fill:#ffffff;fill-opacity:1;fill-rule:nonzero;stroke:none;stroke-width:0.352778" />
    <path
       id="path6"
       d="m 81.534579,126.22864 c 0,-1.38074 -1.11927,-2.50003 -2.50002,-2.50003 -1.38074,0 -2.50002,1.11929 -2.50002,2.50003 0,1.38074 1.11928,2.50002 2.50002,2.50002 1.38075,0 2.50002,-1.11928 2.50002,-2.50002 z"
       style="fill:none;stroke:#000000;stroke-width:0.140582;stroke-linecap:butt;stroke-linejoin:miter;stroke-miterlimit:10;stroke-dasharray:none;stroke-opacity:1" />
    <path
       id="path7"
       d="m 54.03425,121.22858 v -5.00007 l 5.000064,-10.00012 h 5.000055 v 15.00019 z"
       style="fill:none;stroke:#000000;stroke-width:0.140582;stroke-linecap:butt;stroke-linejoin:miter;stroke-miterlimit:10;stroke-dasharray:none;stroke-opacity:1" />
    <path
       id="path8"
       d="m 55.534204,116.22851 4.500185,-9.00004 h 2.99991 v 9.00004 z"
       style="fill:none;stroke:#000000;stroke-width:0.140582;stroke-linecap:butt;stroke-linejoin:miter;stroke-miterlimit:10;stroke-dasharray:none;stroke-opacity:1" />
    <path
       id="path9"
       d="M 65.534319,119.72848 V 104.2284 h 17.00035 v 15.50008 z"
       style="fill:#9cffd5;fill-opacity:1;fill-rule:nonzero;stroke:#000000;stroke-width:0.140582;stroke-linecap:butt;stroke-linejoin:miter;stroke-miterlimit:10;stroke-dasharray:none;stroke-opacity:1" />
    <path
       id="path11"
       d="m 65.034449,120.2285 v -1.99999 h 1.00007 v 1.99999 z"
       style="fill:#000000;fill-opacity:1;fill-rule:nonzero;stroke:none;stroke-width:0.352778" />
    <path
       id="path12"
       d="m 65.034449,120.2285 v -1.00006 h 1.99999 v 1.00006 z"
       style="fill:#000000;fill-opacity:1;fill-rule:nonzero;stroke:none;stroke-width:0.352778" />
    <path
       id="path13"
       d="m 65.034449,103.72837 h 1.99999 v 1.00006 h -1.99999 z"
       style="fill:#000000;fill-opacity:1;fill-rule:nonzero;stroke:none;stroke-width:0.352778" />
    <path
       id="path14"
       d="m 65.034449,103.72837 h 1.00007 v 1.99999 h -1.00007 z"
       style="fill:#000000;fill-opacity:1;fill-rule:nonzero;stroke:none;stroke-width:0.352778" />
    <path
       id="path15"
       d="m 83.034549,103.72837 v 1.99999 h -1.00008 v -1.99999 z"
       style="fill:#000000;fill-opacity:1;fill-rule:nonzero;stroke:none;stroke-width:0.352778" />
    <path
       id="path16"
       d="m 83.034549,103.72837 v 1.00006 h -1.99999 v -1.00006 z"
       style="fill:#000000;fill-opacity:1;fill-rule:nonzero;stroke:none;stroke-width:0.352778" />
    <path
       id="path17"
       d="m 83.034549,120.2285 h -1.99999 v -1.00006 h 1.99999 z"
       style="fill:#000000;fill-opacity:1;fill-rule:nonzero;stroke:none;stroke-width:0.352778" />
    <path
       id="path18"
       d="m 83.034549,120.2285 h -1.00008 v -1.99999 h 1.00008 z"
       style="fill:#000000;fill-opacity:1;fill-rule:nonzero;stroke:none;stroke-width:0.352778" />
    <path
       style="font-size:6.70277px;line-height:1.25;font-family:'DejaVu Sans';-inkscape-font-specification:'DejaVu Sans';letter-spacing:0px;word-spacing:0px;stroke-width:0.264583"
       d="m 73.042829,111.99808 q 0,-0.66439 -0.27492,-1.04076 -0.27164,-0.37965 -0.74948,-0.37965 -0.47783,0 -0.75275,0.37965 -0.27164,0.37637 -0.27164,1.04076 0,0.66439 0.27164,1.04404 0.27492,0.37637 0.75275,0.37637 0.47784,0 0.74948,-0.37637 0.27492,-0.37965 0.27492,-1.04404 z m -2.04879,-1.27968 q 0.18982,-0.32728 0.47783,-0.48438 0.29128,-0.16037 0.69384,-0.16037 0.66766,0 1.08331,0.5302 0.41892,0.5302 0.41892,1.39423 0,0.86403 -0.41892,1.39423 -0.41565,0.5302 -1.08331,0.5302 -0.40256,0 -0.69384,-0.1571 -0.28801,-0.16037 -0.47783,-0.48765 v 0.54984 h -0.60548 v -5.09254 h 0.60548 z m 6.0842,1.23386 q 0,-0.65457 -0.27165,-1.01458 -0.26837,-0.36001 -0.75602,-0.36001 -0.48438,0 -0.75603,0.36001 -0.26837,0.36001 -0.26837,1.01458 0,0.65129 0.26837,1.01131 0.27165,0.36001 0.75603,0.36001 0.48765,0 0.75602,-0.36001 0.27165,-0.36002 0.27165,-1.01131 z m 0.6022,1.42041 q 0,0.93603 -0.41565,1.39096 -0.41565,0.45819 -1.27313,0.45819 -0.31747,0 -0.59893,-0.0491 -0.28147,-0.0458 -0.54656,-0.144 v -0.58584 q 0.26509,0.144 0.52365,0.21273 0.25855,0.0687 0.52693,0.0687 0.59238,0 0.88693,-0.31092 0.29456,-0.30764 0.29456,-0.93275 v -0.29783 q -0.18655,0.32401 -0.47783,0.48438 -0.29129,0.16037 -0.69712,0.16037 -0.6742,0 -1.08658,-0.51384 -0.41238,-0.51383 -0.41238,-1.3615 0,-0.85094 0.41238,-1.36477 0.41238,-0.51384 1.08658,-0.51384 0.40583,0 0.69712,0.16037 0.29128,0.16037 0.47783,0.48438 v -0.55638 h 0.6022 z"
       id="text1"
       aria-label="bg" />
  </g>
</svg>
